<?xml version="1.0" encoding="UTF-8" standalone="no"?>
<svg
   width="16"
   height="16"
   viewBox="0 0 16 16"
   fill="none"
   version="1.1"
   id="svg2177"
   sodipodi:docname="help-circle.svg"
   inkscape:version="1.1 (c68e22c387, 2021-05-23)"
   xmlns:inkscape="http://www.inkscape.org/namespaces/inkscape"
   xmlns:sodipodi="http://sodipodi.sourceforge.net/DTD/sodipodi-0.dtd"
   xmlns="http://www.w3.org/2000/svg"
   xmlns:svg="http://www.w3.org/2000/svg">
  <defs
     id="defs2181" />
  <sodipodi:namedview
     id="namedview2179"
     pagecolor="#ffffff"
     bordercolor="#666666"
     borderopacity="1.0"
     inkscape:pageshadow="2"
     inkscape:pageopacity="0.0"
     inkscape:pagecheckerboard="0"
     showgrid="false"
     inkscape:zoom="52"
     inkscape:cx="7.9903846"
     inkscape:cy="8.0096154"
     inkscape:window-width="1920"
     inkscape:window-height="1017"
     inkscape:window-x="-8"
     inkscape:window-y="-8"
     inkscape:window-maximized="1"
     inkscape:current-layer="svg2177" />
  <path
     id="path2171"
     style="color:#000000;fill:#ffffff;stroke-linecap:round;stroke-linejoin:round;-inkscape-stroke:none"
     d="M 8 0.83398438 C 4.0478839 0.83398438 0.83398437 4.0478848 0.83398438 8 C 0.83398438 11.952134 4.0478902 15.166016 8 15.166016 C 11.952147 15.166016 15.166016 11.952128 15.166016 8 C 15.166016 4.0478902 11.952153 0.83398437 8 0.83398438 z M 8 1.8339844 C 11.411719 1.8339844 14.166016 4.5883172 14.166016 8 C 14.166016 11.411704 11.411726 14.166016 8 14.166016 C 4.5883172 14.166016 1.8339844 11.411699 1.8339844 8 C 1.8339844 4.5883226 4.5883235 1.8339844 8 1.8339844 z M 7.9316406 4.1640625 C 7.4939421 4.1667237 7.0613664 4.2835012 6.6796875 4.5078125 C 6.1707849 4.8069053 5.7837695 5.2771426 5.5878906 5.8339844 A 0.5 0.5 0 0 0 5.8945312 6.4707031 A 0.5 0.5 0 0 0 6.53125 6.1660156 C 6.6488309 5.8317583 6.8820034 5.5506406 7.1875 5.3710938 C 7.4929939 5.191556 7.8519252 5.1256411 8.2011719 5.1855469 C 8.5504236 5.2454535 8.8655434 5.4261756 9.09375 5.6972656 C 9.3219449 5.9683432 9.4477983 6.3116717 9.4472656 6.6660156 C 9.4472656 7.0826796 9.1059178 7.4593357 8.6699219 7.75 C 8.2339259 8.0406643 7.7890625 8.1914062 7.7890625 8.1914062 A 0.5 0.5 0 0 0 7.4726562 8.8242188 A 0.5 0.5 0 0 0 8.1054688 9.140625 C 8.1054688 9.140625 8.6606063 8.9580338 9.2246094 8.5820312 C 9.7881888 8.2063111 10.446277 7.5835047 10.447266 6.6679688 C 10.448153 6.0776736 10.23952 5.5043161 9.859375 5.0527344 C 9.4792222 4.6011451 8.950928 4.299012 8.3691406 4.1992188 C 8.2236925 4.1742703 8.0775401 4.1631754 7.9316406 4.1640625 z M 8 10.833984 A 0.5 0.5 0 0 0 7.5 11.333984 A 0.5 0.5 0 0 0 8 11.833984 L 8.0058594 11.833984 A 0.5 0.5 0 0 0 8.5058594 11.333984 A 0.5 0.5 0 0 0 8.0058594 10.833984 L 8 10.833984 z " />
</svg>
