<?xml version="1.0" encoding="UTF-8" standalone="no"?>
<svg
   width="17"
   height="17"
   viewBox="0 0 17 17"
   fill="none"
   version="1.1"
   id="svg2389"
   sodipodi:docname="settings.svg"
   inkscape:version="1.1 (c68e22c387, 2021-05-23)"
   xmlns:inkscape="http://www.inkscape.org/namespaces/inkscape"
   xmlns:sodipodi="http://sodipodi.sourceforge.net/DTD/sodipodi-0.dtd"
   xmlns="http://www.w3.org/2000/svg"
   xmlns:svg="http://www.w3.org/2000/svg">
  <sodipodi:namedview
     id="namedview2391"
     pagecolor="#ffffff"
     bordercolor="#666666"
     borderopacity="1.0"
     inkscape:pageshadow="2"
     inkscape:pageopacity="0.0"
     inkscape:pagecheckerboard="0"
     showgrid="false"
     inkscape:zoom="48.941176"
     inkscape:cx="8.4897837"
     inkscape:cy="8.5102163"
     inkscape:window-width="1920"
     inkscape:window-height="1017"
     inkscape:window-x="-8"
     inkscape:window-y="-8"
     inkscape:window-maximized="1"
     inkscape:current-layer="svg2389" />
  <path
     id="path2378"
     style="color:#000000;fill:#0275b1;stroke-linecap:round;stroke-linejoin:round;-inkscape-stroke:none"
     d="M 8.578125 0.31835938 C 8.0920884 0.31835936 7.6249322 0.51178381 7.28125 0.85546875 C 6.9375698 1.1991489 6.7460939 1.6663065 6.7460938 2.1523438 L 6.7460938 2.265625 C 6.7452578 2.3820232 6.7088056 2.4947425 6.6445312 2.5917969 C 6.5837831 2.683519 6.4957368 2.7520847 6.3964844 2.7988281 A 0.50005 0.50005 0 0 0 6.3242188 2.8144531 C 6.2144904 2.8628782 6.0926366 2.8768672 5.9746094 2.8554688 C 5.8566089 2.834074 5.7478457 2.7791771 5.6621094 2.6953125 L 5.625 2.6582031 C 5.4547421 2.4877528 5.2538083 2.3520285 5.03125 2.2597656 C 4.8086815 2.1675043 4.5690336 2.1210937 4.328125 2.1210938 C 4.0872164 2.1210938 3.8495216 2.1675038 3.6269531 2.2597656 C 3.4043948 2.3520285 3.2015079 2.4877528 3.03125 2.6582031 C 2.8607996 2.828461 2.7270285 3.031348 2.6347656 3.2539062 C 2.5425306 3.4764451 2.4941406 3.7141505 2.4941406 3.9550781 C 2.4941406 4.1960058 2.5425306 4.4356643 2.6347656 4.6582031 C 2.7270286 4.8807614 2.8607996 5.0816952 3.03125 5.2519531 L 3.0683594 5.2890625 C 3.1522244 5.3747985 3.207121 5.483562 3.2285156 5.6015625 C 3.2499136 5.7195898 3.235926 5.8394901 3.1875 5.9492188 A 0.50005 0.50005 0 0 0 3.1757812 5.9785156 C 3.1342077 6.0915516 3.0588917 6.1897087 2.9609375 6.2597656 C 2.8629826 6.3298285 2.7473816 6.3682721 2.6269531 6.3710938 L 2.578125 6.3710938 C 2.092094 6.3710938 1.6249349 6.5645183 1.28125 6.9082031 C 0.93756513 7.251888 0.74609375 7.7190472 0.74609375 8.2050781 C 0.74609375 8.6911091 0.93756513 9.1582683 1.28125 9.5019531 C 1.6249349 9.845638 2.092094 10.039062 2.578125 10.039062 L 2.6914062 10.039062 C 2.8078193 10.039898 2.9224688 10.074392 3.0195312 10.138672 C 3.1171532 10.203322 3.1921706 10.294747 3.2382812 10.402344 A 0.50005 0.50005 0 0 0 3.2402344 10.40625 C 3.2886894 10.516056 3.3046101 10.637796 3.2832031 10.755859 C 3.2618071 10.87389 3.204979 10.982613 3.1210938 11.068359 L 3.0859375 11.105469 C 2.9156174 11.275693 2.7797705 11.476587 2.6875 11.699219 C 2.595262 11.921773 2.546875 12.161429 2.546875 12.402344 C 2.546875 12.643259 2.595262 12.880961 2.6875 13.103516 C 2.779742 13.32594 2.9153904 13.528906 3.0859375 13.699219 C 3.2560176 13.869227 3.4577019 14.003683 3.6796875 14.095703 C 3.9021417 14.187923 4.1398176 14.236328 4.3808594 14.236328 C 4.6219011 14.236328 4.8615235 14.187928 5.0839844 14.095703 C 5.3064548 14.003473 5.5093557 13.869784 5.6796875 13.699219 L 5.7148438 13.662109 C 5.8005847 13.578239 5.9093502 13.52334 6.0273438 13.501953 C 6.1453229 13.480563 6.2671502 13.494549 6.3769531 13.542969 A 0.50005 0.50005 0 0 0 6.40625 13.554688 C 6.5193719 13.596298 6.6174508 13.669604 6.6875 13.767578 A 0.50005 0.50005 0 0 0 6.6875 13.769531 C 6.757546 13.867451 6.7960119 13.983061 6.7988281 14.103516 L 6.7988281 14.152344 C 6.7988281 14.638372 6.992332 15.103578 7.3359375 15.447266 A 0.50005 0.50005 0 0 0 7.3359375 15.449219 C 7.6796043 15.792817 8.1448001 15.984375 8.6308594 15.984375 C 9.1169249 15.984375 9.5840722 15.792812 9.9277344 15.449219 A 0.50005 0.50005 0 0 0 9.9277344 15.447266 C 10.271354 15.103577 10.464844 14.638372 10.464844 14.152344 L 10.464844 14.041016 L 10.464844 14.039062 C 10.465674 13.922662 10.500243 13.807817 10.564453 13.710938 C 10.628973 13.613447 10.720484 13.538311 10.828125 13.492188 A 0.50005 0.50005 0 0 0 10.833984 13.490234 C 10.943635 13.441814 11.065387 13.425846 11.183594 13.447266 C 11.301519 13.468646 11.410426 13.525556 11.496094 13.609375 L 11.53125 13.644531 C 11.701467 13.814885 11.904291 13.950686 12.126953 14.042969 C 12.349566 14.135289 12.587286 14.183594 12.828125 14.183594 C 13.069027 14.183594 13.308638 14.135284 13.53125 14.042969 C 13.753912 13.950689 13.954783 13.814885 14.125 13.644531 C 14.294871 13.474494 14.431402 13.272844 14.523438 13.050781 C 14.615758 12.828169 14.662109 12.588558 14.662109 12.347656 C 14.662109 12.106817 14.615758 11.869097 14.523438 11.646484 C 14.431218 11.423985 14.295643 11.221149 14.125 11.050781 L 14.089844 11.015625 C 14.006034 10.929955 13.949116 10.82105 13.927734 10.703125 C 13.906314 10.584918 13.92033 10.463166 13.96875 10.353516 A 0.50005 0.50005 0 0 0 13.970703 10.349609 C 14.016823 10.241986 14.093812 10.150555 14.191406 10.085938 A 0.50005 0.50005 0 0 0 14.191406 10.083984 C 14.288356 10.019754 14.401241 9.985207 14.517578 9.984375 L 14.578125 9.984375 C 15.064215 9.984375 15.531311 9.7928387 15.875 9.4492188 A 0.50005 0.50005 0 0 0 15.875 9.4472656 C 16.218513 9.1036861 16.412109 8.638403 16.412109 8.1523438 C 16.412109 7.6662783 16.218593 7.199131 15.875 6.8554688 C 15.531311 6.5118489 15.064215 6.3183594 14.578125 6.3183594 L 14.466797 6.3183594 L 14.464844 6.3183594 C 14.348553 6.3175278 14.23581 6.2830653 14.138672 6.21875 C 14.047439 6.1583107 13.978521 6.0714593 13.931641 5.9726562 A 0.50005 0.50005 0 0 0 13.916016 5.8964844 C 13.867585 5.7866816 13.853615 5.6648541 13.875 5.546875 C 13.89647 5.4287311 13.95131 5.3201386 14.035156 5.234375 L 14.072266 5.1992188 C 14.242727 5.0289915 14.378407 4.8261691 14.470703 4.6035156 C 14.562993 4.3808991 14.609375 4.1431952 14.609375 3.9023438 C 14.609375 3.6614859 14.562985 3.4218353 14.470703 3.1992188 C 14.378403 2.9765653 14.242727 2.7756961 14.072266 2.6054688 C 13.902048 2.4350166 13.699193 2.2993017 13.476562 2.2070312 C 13.254008 2.1147928 13.016306 2.0683594 12.775391 2.0683594 C 12.534475 2.0683594 12.29482 2.1147933 12.072266 2.2070312 C 11.849841 2.2992723 11.648829 2.4349217 11.478516 2.6054688 L 11.441406 2.640625 C 11.355736 2.724436 11.24698 2.781325 11.128906 2.8027344 C 11.01101 2.8241164 10.890979 2.8101448 10.78125 2.7617188 A 0.50005 0.50005 0 0 0 10.775391 2.7597656 C 10.667877 2.7136473 10.57625 2.6365456 10.511719 2.5390625 C 10.447433 2.4420319 10.412945 2.327336 10.412109 2.2109375 L 10.412109 2.1523438 C 10.412109 1.6663064 10.21868 1.1991489 9.875 0.85546875 C 9.5313178 0.51178381 9.0641616 0.31835937 8.578125 0.31835938 z M 8.578125 1.3183594 C 8.7993277 1.3183594 9.0115514 1.4060814 9.1679688 1.5625 C 9.324388 1.7189193 9.4121094 1.9311217 9.4121094 2.1523438 L 9.4121094 2.2109375 A 0.50005 0.50005 0 0 0 9.4121094 2.2148438 C 9.4133594 2.5268186 9.5053704 2.831637 9.6777344 3.0917969 C 9.8492031 3.3508247 10.092028 3.5526978 10.376953 3.6757812 C 10.376953 3.6757812 10.378906 3.6757812 10.378906 3.6757812 C 10.670905 3.8042149 10.99474 3.8440298 11.308594 3.7871094 C 11.62312 3.7300784 11.912096 3.5790371 12.140625 3.3554688 A 0.50005 0.50005 0 0 0 12.144531 3.3515625 L 12.185547 3.3125 C 12.262837 3.235107 12.353903 3.1728178 12.455078 3.1308594 C 12.556323 3.0888984 12.665906 3.0683594 12.775391 3.0683594 C 12.884875 3.0683594 12.992505 3.0888984 13.09375 3.1308594 C 13.194918 3.1727884 13.287853 3.235012 13.365234 3.3125 C 13.442774 3.389932 13.504972 3.4809449 13.546875 3.5820312 C 13.588785 3.6831344 13.609375 3.7927419 13.609375 3.9023438 C 13.609375 4.0119318 13.588785 4.1196 13.546875 4.2207031 C 13.504975 4.3217893 13.442773 4.4147551 13.365234 4.4921875 L 13.324219 4.53125 A 0.50005 0.50005 0 0 0 13.320312 4.5351562 C 13.096944 4.7636281 12.947755 5.054765 12.890625 5.3691406 C 12.838298 5.6578158 12.870085 5.9536228 12.974609 6.2265625 A 0.50005 0.50005 0 0 0 12.998047 6.3496094 C 13.121009 6.636187 13.325883 6.8804563 13.585938 7.0527344 C 13.846066 7.2249664 14.150896 7.317123 14.462891 7.3183594 A 0.50005 0.50005 0 0 0 14.464844 7.3183594 L 14.578125 7.3183594 C 14.799434 7.3183594 15.011458 7.4060204 15.167969 7.5625 C 15.324375 7.7189374 15.412109 7.9311498 15.412109 8.1523438 C 15.412109 8.3735238 15.324359 8.5838162 15.167969 8.7402344 C 15.011458 8.8967139 14.799434 8.984375 14.578125 8.984375 L 14.517578 8.984375 A 0.50005 0.50005 0 0 0 14.515625 8.984375 C 14.20363 8.985615 13.898789 9.079633 13.638672 9.2519531 C 13.379248 9.4237179 13.177687 9.6674632 13.054688 9.953125 C 12.926787 10.244729 12.886618 10.567767 12.943359 10.880859 C 13.000379 11.195334 13.151414 11.486312 13.375 11.714844 A 0.50005 0.50005 0 0 0 13.378906 11.71875 L 13.417969 11.757812 A 0.50005 0.50005 0 0 0 13.417969 11.759766 C 13.495329 11.836996 13.557625 11.927997 13.599609 12.029297 C 13.641489 12.130284 13.662109 12.238097 13.662109 12.347656 C 13.662109 12.457354 13.641489 12.566981 13.599609 12.667969 C 13.557649 12.769202 13.495552 12.859979 13.417969 12.9375 A 0.50005 0.50005 0 0 0 13.417969 12.939453 C 13.340589 13.016903 13.249574 13.077224 13.148438 13.119141 C 13.04745 13.161021 12.937823 13.183594 12.828125 13.183594 C 12.718564 13.183594 12.610753 13.161021 12.509766 13.119141 C 12.408628 13.077221 12.315664 13.016899 12.238281 12.939453 A 0.50005 0.50005 0 0 0 12.238281 12.9375 L 12.199219 12.898438 A 0.50005 0.50005 0 0 0 12.195312 12.894531 C 11.966781 12.670945 11.675802 12.521862 11.361328 12.464844 C 11.048236 12.408104 10.725196 12.446324 10.433594 12.574219 C 10.147945 12.697212 9.9022325 12.900625 9.7304688 13.160156 C 9.5580259 13.420348 9.4660798 13.725177 9.4648438 14.037109 A 0.50005 0.50005 0 0 0 9.4648438 14.039062 L 9.4648438 14.152344 C 9.4648438 14.373515 9.3771828 14.583724 9.2207031 14.740234 C 9.0642658 14.89664 8.8520532 14.984375 8.6308594 14.984375 C 8.4096793 14.984375 8.1994014 14.896635 8.0429688 14.740234 C 7.8864947 14.583723 7.7988281 14.373515 7.7988281 14.152344 L 7.7988281 14.091797 A 0.50005 0.50005 0 0 0 7.7988281 14.089844 A 0.50005 0.50005 0 0 0 7.7988281 14.087891 A 0.50005 0.50005 0 0 0 7.7988281 14.085938 A 0.50005 0.50005 0 0 0 7.7988281 14.083984 A 0.50005 0.50005 0 0 0 7.7988281 14.082031 A 0.50005 0.50005 0 0 0 7.7988281 14.080078 C 7.7913354 13.759045 7.686754 13.448577 7.5 13.1875 C 7.3165595 12.930932 7.0600398 12.736894 6.765625 12.625 C 6.4766561 12.500567 6.1595107 12.461404 5.8496094 12.517578 C 5.5350633 12.574591 5.2441238 12.72374 5.015625 12.947266 A 0.50005 0.50005 0 0 0 5.0117188 12.951172 L 4.9707031 12.992188 C 4.8933751 13.069617 4.8024212 13.129902 4.7011719 13.171875 C 4.5999131 13.213855 4.4902573 13.236328 4.3808594 13.236328 C 4.2714615 13.236328 4.1637655 13.213855 4.0625 13.171875 C 3.9612515 13.129905 3.8703061 13.069631 3.7929688 12.992188 A 0.50005 0.50005 0 0 0 3.7910156 12.992188 C 3.7136238 12.914903 3.6532865 12.821879 3.6113281 12.720703 C 3.5693666 12.619458 3.546875 12.511828 3.546875 12.402344 C 3.546875 12.292859 3.5693671 12.183277 3.6113281 12.082031 C 3.6532571 11.980863 3.713396 11.890076 3.7910156 11.8125 A 0.50005 0.50005 0 0 0 3.7929688 11.8125 L 3.8320312 11.771484 A 0.50005 0.50005 0 0 0 3.8359375 11.767578 C 4.0594306 11.539123 4.2086013 11.250115 4.265625 10.935547 C 4.3225394 10.621661 4.2846349 10.29778 4.15625 10.005859 C 4.0332234 9.7201703 3.8296297 9.4764203 3.5703125 9.3046875 C 3.3101845 9.1324178 3.0053398 9.0403132 2.6933594 9.0390625 A 0.50005 0.50005 0 0 0 2.6914062 9.0390625 L 2.578125 9.0390625 C 2.3569167 9.0390625 2.1446959 8.9513365 1.9882812 8.7949219 C 1.8318667 8.6385072 1.7460938 8.4262865 1.7460938 8.2050781 C 1.7460938 7.9838698 1.8318667 7.771649 1.9882812 7.6152344 C 2.144696 7.4588197 2.3569167 7.3710938 2.578125 7.3710938 L 2.6386719 7.3710938 A 0.50005 0.50005 0 0 0 2.6503906 7.3710938 C 2.9712813 7.3635754 3.281864 7.2609756 3.5429688 7.0742188 C 3.7994262 6.8908001 3.9935615 6.6323763 4.1054688 6.3378906 C 4.229367 6.0493208 4.2689549 5.7311078 4.2128906 5.421875 C 4.1558653 5.1073559 4.0067182 4.8183472 3.7832031 4.5898438 A 0.50005 0.50005 0 0 0 3.7792969 4.5859375 L 3.7382812 4.5449219 C 3.6607918 4.46752 3.5985777 4.3745989 3.5566406 4.2734375 C 3.5146956 4.1722367 3.4941406 4.0645901 3.4941406 3.9550781 C 3.4941406 3.8455661 3.5146956 3.7379196 3.5566406 3.6367188 C 3.5985776 3.5355573 3.6607919 3.4426363 3.7382812 3.3652344 C 3.8156833 3.2877454 3.9086042 3.2255308 4.0097656 3.1835938 C 4.1109368 3.1416547 4.218594 3.1210938 4.328125 3.1210938 C 4.437656 3.1210938 4.5472663 3.1416547 4.6484375 3.1835938 C 4.7495989 3.2255307 4.8405669 3.287745 4.9179688 3.3652344 L 4.9589844 3.40625 A 0.50005 0.50005 0 0 0 4.9628906 3.4101562 C 5.191394 3.6336712 5.4804028 3.7828183 5.7949219 3.8398438 C 6.0792827 3.8913983 6.3709879 3.8608332 6.640625 3.7597656 A 0.50005 0.50005 0 0 0 6.7753906 3.7324219 C 7.0621576 3.6095155 7.3062467 3.404636 7.4785156 3.1445312 C 7.6507901 2.884396 7.7428899 2.5795529 7.7441406 2.2675781 A 0.50005 0.50005 0 0 0 7.7460938 2.265625 L 7.7460938 2.1523438 C 7.7460938 1.9311216 7.8318618 1.7189193 7.9882812 1.5625 C 8.1447017 1.4060814 8.3569223 1.3183594 8.578125 1.3183594 z M 8.578125 5.6523438 C 7.2033366 5.6523438 6.078125 6.7775553 6.078125 8.1523438 C 6.078125 9.5271321 7.2033245 10.652344 8.578125 10.652344 C 9.9529255 10.652344 11.078125 9.5271291 11.078125 8.1523438 C 11.078125 6.7775583 9.9529134 5.6523437 8.578125 5.6523438 z M 8.578125 6.6523438 C 9.4124744 6.6523438 10.078125 7.3179914 10.078125 8.1523438 C 10.078125 8.9866961 9.4124623 9.6523437 8.578125 9.6523438 C 7.7437877 9.6523438 7.078125 8.986693 7.078125 8.1523438 C 7.078125 7.3179944 7.7437756 6.6523438 8.578125 6.6523438 z " />
  <defs
     id="defs2387">
    <clipPath
       id="clip0">
      <rect
         width="16"
         height="16"
         fill="white"
         transform="translate(0.578613 0.151855)"
         id="rect2384" />
    </clipPath>
  </defs>
</svg>
